<svg width="230" height="224" viewBox="0 0 230 224" fill="none" xmlns="http://www.w3.org/2000/svg">
<g clip-path="url(#clip0_334_2379)">
<path d="M115.643 0C51.6841 0 0 50.2872 0 111.889C0 173.491 51.684 223.778 114.997 223.778C178.31 223.778 229.994 173.491 229.994 111.889C230.64 50.2872 178.956 0 115.643 0ZM115.643 194.234C69.1274 194.234 31.6565 157.776 31.6565 112.518C31.6565 67.2591 69.1274 30.8009 115.643 30.8009C162.159 30.8009 199.63 67.2591 199.63 112.518C199.63 157.147 161.513 194.234 115.643 194.234Z" fill="#E9E9E9" fill-opacity="0.2"/>
<path d="M162.804 121.318C154.405 121.318 146.652 120.689 139.546 118.803C120.81 115.032 114.996 111.26 136.962 105.603C142.776 104.346 149.237 103.089 155.697 103.089C163.45 103.089 169.264 101.831 173.787 98.6884C177.663 96.174 180.247 91.7739 180.247 86.7452C180.247 81.7165 178.309 77.3163 175.079 73.5448C171.202 69.7733 167.326 67.8875 162.804 67.8875C156.989 67.8875 150.529 72.9162 143.422 82.9736C142.776 83.6022 142.776 84.2308 142.13 84.8594C138.254 90.5167 134.378 94.9168 131.147 98.6884C109.182 120.06 122.103 87.3738 126.625 77.9449C131.793 67.2589 134.378 60.973 134.378 58.4586C134.378 53.4299 133.085 49.6584 129.855 47.144C126.625 44.0011 122.103 42.7439 116.934 42.7439C111.766 42.7439 107.243 44.0011 104.013 47.144C100.783 50.287 98.8447 54.0585 98.8447 59.0872C98.8447 61.6016 101.429 67.2589 106.597 77.9449C111.12 87.3738 124.041 119.432 102.075 98.6884C98.1987 94.9168 94.3224 90.5167 91.0921 84.8594C90.4461 84.2308 89.8 82.9736 89.154 81.7165C82.6935 72.2876 76.879 67.8875 69.7725 67.8875C65.2501 67.8875 61.3738 69.7733 58.1436 73.5448C54.9133 77.3163 52.9751 81.7165 52.9751 86.1166C52.9751 90.5167 54.9133 94.2883 58.1436 97.4312C61.3738 100.574 65.2501 102.46 69.7725 102.46C78.1711 102.46 85.9237 103.089 93.0303 104.974C111.12 108.746 118.226 112.517 95.6145 118.175C89.8 119.432 83.3395 120.06 76.879 120.06C69.1264 120.06 63.312 121.318 58.7896 124.461C54.9133 127.604 52.3291 131.375 52.3291 137.032C52.3291 142.061 54.2673 145.833 57.4975 150.233C61.3738 154.004 65.2501 155.89 69.7725 155.89C75.5869 155.89 82.0474 150.861 88.5079 140.804C89.154 140.175 89.8 138.918 89.8 138.918C93.6763 133.261 96.9066 128.861 100.783 125.089C122.749 104.346 110.474 135.775 105.305 145.833C100.137 155.89 97.5526 162.805 97.5526 164.69C97.5526 169.719 98.8447 173.491 102.075 176.005C105.305 178.519 109.828 180.405 114.996 180.405C120.164 180.405 124.687 179.148 127.917 176.005C131.147 172.862 133.085 169.09 133.085 164.062C133.085 161.547 130.501 155.261 125.333 145.204C120.164 135.147 107.243 103.717 129.855 124.461C133.731 128.232 137.608 132.632 140.838 137.661C141.484 138.29 142.13 139.547 142.776 140.804C149.237 150.233 155.051 154.633 161.512 154.633C166.034 154.633 169.91 152.747 173.141 148.976C176.371 145.204 178.309 140.804 178.309 136.404C178.309 132.004 176.371 128.232 173.141 125.089C171.202 123.203 167.326 121.318 162.804 121.318Z" fill="#E9E9E9" fill-opacity="0.2"/>
</g>
<defs>
<clipPath id="clip0_334_2379">
<rect width="230" height="224" fill="white"/>
</clipPath>
</defs>
</svg>
